<svg version="1.1" id="Ebene_1" xmlns="http://www.w3.org/2000/svg" xmlns:xlink="http://www.w3.org/1999/xlink" x="0px" y="0px" viewBox="0 0 891.4 428" style="enable-background:new 0 0 891.4 428;" xml:space="preserve"><style type="text/css">	.st0{fill:#FFFFFF;}	.st1{fill:#6CAB36;}	.st2{font-family:'GraublauSlab-Regular';}	.st3{font-size:76.5865px;}</style><g>	<path class="st0" d="M97.9,133.4c-2.6,7-13.8,13.4-35.5,12.3c-19.3-1-30.4-2.1-55.4-12.9l-7,38.3c22.2,11,57.6,12.9,57.6,12.9		c25.5,1.4,30,0.7,45.1-2.1c18.5-3.5,35.6-15.3,42.7-29.6c12.9-27,10.9-55.6-14.9-66.6c-13.5-6.2-25.9-9.8-45.6-15.8		c-7.2-2.6-14.5-5.3-16.9-9.6c-3.8-8.5,1.9-15,8-17.1c4-1.4,12.1-3.1,24.3-3.1c12.6,0,26.4,2.4,32.2,3.8c5.6,1.1,14.7,3.3,17.5,4.6		l6.9-33.9c-7.8-2.7-16.7-4.6-26.5-5.9c-9.9-1.2-19.9-1.9-30.1-1.9c-24.9,0-44.1,4.1-57.6,12.3s-21.9,20.2-25,36.1		c-2.7,13-0.6,21.8,6.2,29.9c6.8,8,20.1,13,37.6,18c7.7,2.2,12.9,3.8,20.9,6.7C97.4,115.6,100.7,124.1,97.9,133.4"></path>	<polygon class="st0" points="174.9,15.5 168.2,49.5 224,49.5 198.2,181.8 246.4,181.8 272.1,49.5 331.2,49.5 337.8,15.5 	"></polygon>	<polygon class="st0" points="447.5,15.5 384.1,15.5 284.4,181.8 335.9,181.8 354.5,147.9 354.5,147.9 373.6,113.4 409.1,49.5 		419.6,113.9 380.9,113.9 362,147.9 425.1,147.9 430.8,181.8 482.3,181.8 	"></polygon>	<path class="st0" d="M675.4,68c1.7-9,1.3-16.8-1.2-23.4c-2.5-6.6-6.9-12-13-16.3s-13.8-7.5-23-9.6s-19.6-3.2-31.2-3.2h-74.8		l-32.4,166.3H548l11.8-60.9l6-31.5l0,0l8.3-42.8h23.4c10.5,0,18.4,1.7,23.6,5s7.2,8.8,5.7,16.4c-1.6,7.6-5.6,13.1-12.2,16.4		c-6.5,3.3-15,5-25.5,5h-16.5l-6,31.1h17.5l31.2,61.3h54.1l-38.1-67.7c11.6-4,21.3-9.7,29.1-17.3C668.2,89.2,673.2,79.6,675.4,68"></path>	<polygon class="st1" points="837.4,11.9 747.6,92.9 810,182.5 868.1,182.5 802.8,92.8 893.9,11.9 	"></polygon>	<polygon class="st0" points="724.4,16.2 691.8,182.5 739.9,182.5 753.2,114.2 738.2,92.4 761.5,71.2 772.3,16.2 	"></polygon>	<path class="st1" d="M650.2,285.5c18.7-4.4,28.3-10,28.3-17.3c0-3.8-3.1-5.7-7.1-5.7C662.7,262.5,653.7,272.1,650.2,285.5		 M658.8,316.5c-15,0-21.7-11.3-17.8-29.4c4.3-19.1,17.8-31.9,31.1-31.9c10.2,0,15.3,4.8,15.3,12.2c0,11.6-12.7,20.2-38.5,25.2		c-1,10.2,2.5,16.4,10.6,16.4c6.9,0,12.5-4,15.5-6l3.4,6C674.4,312.3,667.2,316.5,658.8,316.5L658.8,316.5z"></path>	<polygon class="st1" points="24.6,308.3 34.6,308.3 33.3,315 3.4,315 4.9,308.3 15.1,308.3 29.5,241.6 19.5,241.6 20.8,234.9 		50.8,234.9 49.4,241.6 39.2,241.6 	"></polygon>	<path class="st1" d="M105.8,309l-1.3,6.2c-2,0.4-3.7,0.6-5.6,0.6c-8.5,0-12.4-4.2-11.9-11.3c0.4-7.3,5.4-20,6.9-26.9		c2.2-9.5-0.3-14.3-6.4-14.3c-9,0-19.3,11.1-23.1,27.9L59,315.1h-9.1l9.8-43.7c0.5-2.9,0.8-5.3,0.9-7.9H49.2l1.4-6.8h17.9		c0.5,3.9,0.5,7.8,0,11.7c6.5-9.2,13.7-13.1,21.8-13.1c12,0,15.8,8.7,12.8,22.1c-1.7,7.4-6.4,20.2-6.7,25.6		c-0.3,3.6,1.3,5.9,5.9,5.9L105.8,309L105.8,309L105.8,309z"></path>	<path class="st1" d="M150.3,277.4l2.9-13.1c-2.9-1.2-6.1-2-9.8-2c-6,0-9.7,2.6-10.1,7.4c-0.9,11.7,24.8,14.4,21.9,32.7		c-1.4,8.6-8.6,13.5-19.6,13.5c-8,0-14.4-2-20.5-5.6l3.7-17.4h7.3l-2.9,13c4.8,2.2,8.4,3,12.5,3c6.3,0,10.3-2.9,11-7.9		c1.7-12.1-24.3-15.2-22.3-32.1c1-8.3,6.9-13.5,18.7-13.5c7.7,0,13.7,2.5,18.2,4.9l-0.3,0.4l-3.5,17h-7.2V277.4L150.3,277.4z"></path>	<path class="st1" d="M193.2,308.8c10.6,0,20.4-10.4,24-26.7c3-14.1-0.3-18.9-5.9-19.1c-8.4-0.4-20.9,11.7-24.3,25.9l-3.9,16.4		C185.7,307.6,188.9,308.7,193.2,308.8 M191.2,256.5c0.4,4.3,0.3,8.9-0.7,13.4c6.4-8.9,14.6-15.1,23.5-14.7		c10.3,0.3,16.3,8.9,12.1,28.1c-4.7,21.1-18.3,33.2-34,33.2c-4,0-8-0.9-11.5-2.5l-5.2,23.8h9.8l-1.3,6.8h-29.2l1.4-6.8h10.5		l14.8-66.5c0.7-2.9,0.9-5.3,1-7.9h-11.3l1.4-6.8h18.4L191.2,256.5L191.2,256.5z"></path>	<path class="st1" d="M261.5,237.7c0,3.5-2.7,6.1-6.4,6.1c-3.5,0-6.3-2.6-6.3-6.1c0-3.6,2.7-6.2,6.3-6.2S261.5,234.1,261.5,237.7		 M256.4,256.7c0,0.8,0.1,2.2,0.1,4.2c0,3.9-0.3,8.6-2.1,15.6c-4.4,17.8-6,24.3-6,27.2c0,3.4,2,5.2,6.3,5.2h4.2l-1.2,6.4		c-2.1,0.4-4,0.7-6.8,0.7c-6.8,0-11.8-3.5-11.9-10.9c0-4.9,2.1-12.4,6.5-29.4c1.2-4.7,1.7-8.6,2-12.2h-11l1.4-6.8h18.4v0H256.4z"></path>	<path class="st1" d="M287.7,273.3c7.2-12.8,13.3-18.1,22.1-18.1c1.7,0,3.5,0.3,5.4,0.8l-1.2,9c-1.4-0.4-3.1-0.5-4.4-0.5		c-11.6,0-22.5,17.3-27.7,37.2l-2.7,13.3h-9.1l9.3-43.7c0.5-2.7,1-5.2,1.3-7.8h-11.5l1.4-6.8h18.5c0.7,5.2-0.1,10.5-1.2,15.8l-0.3,1		L287.7,273.3L287.7,273.3z"></path>	<path class="st1" d="M346.7,286c3.1-7.7,5-16.5,5.9-20.8c-2.5-1.8-5.4-2.7-8.9-2.7c-12.3,0-25.5,19-25.5,36.4		c0,4.2,1.2,9.2,6.7,9.2C331.7,308.1,341.4,298.8,346.7,286 M354.2,315.8c-7.2,0-11.1-4.3-11.2-11.7v-0.4		c-6.3,8.1-13.6,12.5-20.4,12.5c-9,0-13.3-6.4-13.3-15.9c0-20.6,14.9-45.2,34.5-45.2c7,0,13.1,2.2,18.4,7.2		c-9,32.3-10.4,38.1-10.4,41.3c0,3.4,2.2,5.2,6.5,5.2h3.7l-1.2,6.4C359.1,315.6,357,315.8,354.2,315.8L354.2,315.8z"></path>	<path class="st1" d="M383.7,303.6c0,2.3,1.4,4.8,5.2,4.8c3.9,0,7.6-1.8,12.4-5.2l2.2,6.5c-5.1,4.2-11.1,6.6-17.4,6.6		c-8.6,0-12-5.1-12-10.5c0-3.3,0.9-6.9,2.1-11.8l8-30.5H374l1.4-6.9H386l4-15.7l9.5-1.6l-4.4,17.3h14.4l-1.6,6.9h-14.6l-8,30.6		C384.3,298,383.7,301.5,383.7,303.6"></path>	<path class="st1" d="M437.9,237.7c0,3.5-2.7,6.1-6.4,6.1c-3.5,0-6.3-2.6-6.3-6.1c0-3.6,2.7-6.2,6.3-6.2		C435.2,231.5,437.9,234.1,437.9,237.7 M432.8,256.7c0,0.8,0.1,2.2,0.1,4.2c0,3.9-0.3,8.6-2.1,15.6c-4.4,17.8-6,24.3-6,27.2		c0,3.4,2,5.2,6.3,5.2h4.2l-1.2,6.4c-2.1,0.4-4,0.7-6.8,0.7c-6.8,0-11.8-3.5-11.9-10.9c0-4.9,2.1-12.4,6.5-29.4		c1.2-4.7,1.7-8.6,2-12.2h-11l1.4-6.8L432.8,256.7L432.8,256.7L432.8,256.7z"></path>	<path class="st1" d="M455.3,285.6c-3.3,15.5,0.1,23.4,9.8,23.4c9.5,0,17.1-8.9,20.1-23.6c3-15.1-0.3-22.9-9.7-22.9		C465.6,262.6,458.3,271.2,455.3,285.6 M494.5,286.1c-4.1,18.9-14.9,30.3-30.4,30.3c-15.4,0-22.5-11.3-18.2-31.8		c3.9-18.4,14.8-29.5,30.6-29.5C492,255.2,498.8,266.2,494.5,286.1L494.5,286.1z"></path>	<path class="st1" d="M562.1,309l-1.3,6.2c-2,0.4-3.7,0.6-5.6,0.6c-8.5,0-12.4-4.2-11.9-11.3c0.4-7.3,5.4-20,6.9-26.9		c2.2-9.5-0.3-14.3-6.4-14.3c-9,0-19.3,11.1-23.1,27.9l-5.4,23.9h-9.1l9.8-43.7c0.5-2.9,0.8-5.3,0.9-7.9h-11.4l1.4-6.8h17.9		c0.5,3.9,0.5,7.8,0,11.7c6.5-9.2,13.7-13.1,21.8-13.1c12,0,15.8,8.7,12.8,22.1c-1.7,7.4-6.4,20.2-6.7,25.6		c-0.3,3.6,1.3,5.9,5.9,5.9h3.4v0.1H562.1z"></path>	<path class="st1" d="M623.6,285.8c-2,8.1-3.5,13.8-3.7,17c0,3.8,2,5.9,6.3,5.9h3.4l-1.3,6.2c-1.7,0.4-3.7,0.7-6.1,0.7		c-7.4,0-11.8-3.8-11.4-11.8c0-4.6,1.8-11.5,3.8-19.4L625,242c0.8-3,1.3-5.6,1.7-8.2h-11l1.4-6.8h18.2c0.7,5.2,0,10.8-1.3,16.1		l-10.3,42.8L623.6,285.8L623.6,285.8z"></path>	<path class="st1" d="M713.9,309c10.6,0,20.4-10.4,24-26.7c3-14.1-0.3-18.9-5.9-19.1c-8.4-0.4-20.9,11.7-24.3,25.9l-3.9,16.4		C706.4,307.9,709.6,308.9,713.9,309 M712.6,268.6c6.3-8.1,14.1-13.7,22.6-13.4c10.3,0.3,16.3,8.8,12.1,28.1		c-4.7,21.1-18.3,33.2-34,33.2c-7.3,0-14.2-2.9-19.2-7.8l0.3-0.7l15.7-66c0.8-3,1.3-5.6,1.6-8.3h-11.9l1.4-6.8h19.2		c0.7,5.2,0,10.8-1.3,16.1l-6.3,25.4L712.6,268.6L712.6,268.6z"></path>	<path class="st1" d="M767.2,285.5c18.7-4.4,28.3-10,28.3-17.3c0-3.8-3.1-5.7-7.1-5.7C779.7,262.5,770.7,272.1,767.2,285.5		 M775.8,316.5c-15,0-21.7-11.3-17.8-29.4c4.3-19.1,17.8-31.9,31.1-31.9c10.2,0,15.3,4.8,15.3,12.2c0,11.6-12.7,20.2-38.5,25.2		c-1,10.2,2.5,16.4,10.6,16.4c6.9,0,12.5-4,15.5-6l3.4,6C791.4,312.3,784.2,316.5,775.8,316.5L775.8,316.5z"></path>	<path class="st1" d="M868.3,309l-1.3,6.2c-2,0.4-3.7,0.6-5.6,0.6c-8.5,0-12.4-4.2-11.9-11.3c0.4-7.3,5.4-20,6.9-26.9		c2.2-9.5-0.3-14.3-6.4-14.3c-9,0-19.3,11.1-23.1,27.9l-5.4,23.9h-9.1l9.8-43.7c0.5-2.9,0.8-5.3,0.9-7.9h-11.3l1.4-6.8h17.9		c0.5,3.9,0.5,7.8,0,11.7c6.5-9.2,13.7-13.1,21.8-13.1c12,0,15.8,8.7,12.8,22.1c-1.7,7.4-6.4,20.2-6.7,25.6		c-0.3,3.6,1.3,5.9,5.9,5.9L868.3,309L868.3,309L868.3,309z"></path>	<path class="st1" d="M878.5,309.4c0-3.6,2.7-6.5,6.4-6.5c3.8,0,6.5,2.9,6.5,6.5s-2.7,6.5-6.5,6.5		C881.2,315.9,878.5,313.1,878.5,309.4"></path>	<text transform="matrix(1 0 0 1 -0.2 414.6223)" class="st0 st2 st3">Gut im Handw</text>	<text transform="matrix(1 0 0 1 477.8391 414.6223)" class="st0 st2 st3">erk sei</text>	<text transform="matrix(1 0 0 1 692.5031 414.6223)" class="st0 st2 st3">t 1920</text>	<text transform="matrix(1 0 0 1 877.2219 414.6223)" class="st0 st2 st3">.</text></g></svg>